<svg width="30" height="30" viewBox="0 0 30 30" fill="none" xmlns="http://www.w3.org/2000/svg">
<rect width="30" height="30" rx="5" fill="white"/>
<g clip-path="url(#clip0_16_168)">
<path d="M21.5958 15.857C21.2725 15.4487 21.365 15.267 21.5958 14.902C21.6 14.8978 24.2692 11.2095 24.5442 9.95866L24.5458 9.95783C24.6825 9.50199 24.5458 9.16699 23.885 9.16699H21.6983C21.1417 9.16699 20.885 9.45449 20.7475 9.77616C20.7475 9.77616 19.6342 12.4412 18.0592 14.1687C17.5508 14.6678 17.3158 14.8278 17.0383 14.8278C16.9017 14.8278 16.6892 14.6678 16.6892 14.212V9.95783C16.6892 9.41116 16.5333 9.16699 16.0725 9.16699H12.6342C12.285 9.16699 12.0775 9.42199 12.0775 9.65949C12.0775 10.1778 12.865 10.297 12.9467 11.7553V14.9195C12.9467 15.6128 12.8208 15.7403 12.5417 15.7403C11.7983 15.7403 9.99417 13.0645 8.925 10.002C8.70917 9.40783 8.49833 9.16783 7.9375 9.16783H5.75C5.12583 9.16783 5 9.45533 5 9.77699C5 10.3453 5.74333 13.1712 8.45667 16.9045C10.265 19.4528 12.8117 20.8337 15.1283 20.8337C16.5208 20.8337 16.6908 20.527 16.6908 19.9995C16.6908 17.5645 16.565 17.3345 17.2625 17.3345C17.5858 17.3345 18.1425 17.4945 19.4425 18.7237C20.9283 20.1812 21.1725 20.8337 22.0042 20.8337H24.1908C24.8142 20.8337 25.13 20.527 24.9483 19.922C24.5325 18.6495 21.7225 16.032 21.5958 15.857Z" fill="#17181C"/>
</g>
<defs>
<clipPath id="clip0_16_168">
<rect width="20" height="20" fill="white" transform="translate(5 5)"/>
</clipPath>
</defs>
</svg>
